
        <svg xmlns="http://www.w3.org/2000/svg" xmlns:xlink="http://www.w3.org/1999/xlink" version="1.1" width="3162.3042362090637" 
        height="586.525558098358" viewBox="0 0 3162.3042362090637 586.525558098358">
			
			<g transform="scale(8.115211810453161) translate(10, 10)">
				<defs id="SvgjsDefs3655"></defs><g id="SvgjsG3656" featureKey="symbolFeature-0" transform="matrix(0.8873451086762951,0,0,0.8873451086762951,-18.20531619800369,-18.229841874673436)" fill="#35d0ba"><path xmlns="http://www.w3.org/2000/svg" d="M48,49.7c2.6-15.9,14.4-22.6,21.5-25.2c0.9-0.3,0.9-1.5,0.1-1.9c-10-4.9-25-0.9-36.5,10.5c-12,12-15.9,28.2-9.6,38.1    c0.8,1.2,2.2,1.8,3.6,1.4C32.5,71,45.4,65.7,48,49.7z"></path><path xmlns="http://www.w3.org/2000/svg" d="M52,50.3c-1.2,7.7-4.6,13.2-8.6,17.1c-4.3,4.3-9.2,6.7-12.9,8.1c-0.9,0.3-0.9,1.5-0.1,1.9c10,4.9,25,0.9,36.5-10.5    c12-12,15.9-28.2,9.6-38.1c-0.8-1.2-2.2-1.8-3.6-1.4C67.5,29,54.6,34.3,52,50.3z"></path></g><g id="SvgjsG3657" featureKey="nameFeature-0" transform="matrix(1.0889527878800183,0,0,1.0889527878800183,72,-1.9803204301292396)" fill="#111111"><path d="M14.08 40 c-2.44 0 -4.76 -0.64 -6.96 -1.92 c-4.4 -2.52 -7.12 -7.16 -7.12 -12.12 c0 -2.48 0.64 -4.8 1.92 -7 c2.52 -4.32 7.24 -7.04 12.16 -7.04 c2.44 0 4.8 0.64 7 1.88 c4.4 2.56 7.04 7.32 7.04 12.16 c0 2.44 -0.64 4.72 -1.88 6.92 c-2.56 4.4 -7.2 7.12 -12.16 7.12 z M14.08 13.32 c-2.28 0 -4.4 0.56 -6.32 1.68 c-3.88 2.24 -6.28 6.36 -6.28 10.96 c0 2.28 0.56 4.4 1.68 6.32 c2.24 3.88 6.32 6.28 10.92 6.28 c2.28 0 4.4 -0.56 6.36 -1.68 c3.88 -2.24 6.28 -6.32 6.28 -10.92 c0 -2.28 -0.56 -4.4 -1.68 -6.36 c-2.24 -3.88 -6.48 -6.28 -10.96 -6.28 z M14.08 37.28 c-2 0 -3.88 -0.52 -5.68 -1.52 c-3.56 -2.04 -5.76 -5.76 -5.76 -9.8 c0 -2.04 0.52 -3.92 1.52 -5.68 c2.04 -3.52 5.64 -5.6 9.92 -5.6 c2.16 0 4.12 0.48 5.84 1.44 c3.44 1.92 5.44 5.52 5.44 9.84 c0 2.04 -0.48 3.92 -1.44 5.64 c-1.96 3.48 -5.8 5.68 -9.84 5.68 z M14.08 16.08 c-1.8 0 -3.44 0.44 -4.96 1.32 c-3.08 1.76 -4.96 4.92 -4.96 8.56 c0 1.76 0.44 3.4 1.36 4.92 c1.76 3.08 4.88 5 8.56 5 c1.8 0 3.44 -0.44 4.96 -1.36 c3 -1.76 4.92 -5.04 4.92 -8.56 c0 -1.8 -0.44 -3.48 -1.32 -5 c-1.76 -3.04 -5.08 -4.88 -8.56 -4.88 z M14.08 34.68 c-1.56 0 -3.04 -0.4 -4.36 -1.16 c-2.68 -1.56 -4.4 -4.52 -4.4 -7.56 c0 -1.56 0.4 -3.04 1.2 -4.4 c1.56 -2.72 4.32 -4.28 7.56 -4.28 c1.56 0 3 0.4 4.32 1.16 c2.68 1.56 4.24 4.28 4.24 7.52 c0 1.6 -0.36 3.04 -1.08 4.36 c-1.48 2.64 -4.32 4.36 -7.48 4.36 z M14.08 18.72 c-1.28 0 -2.48 0.32 -3.6 0.96 c-2.24 1.32 -3.68 3.68 -3.68 6.28 c0 1.28 0.32 2.48 0.96 3.56 c1.28 2.24 3.6 3.6 6.32 3.6 c1.32 0 2.56 -0.32 3.64 -0.96 c2.2 -1.28 3.52 -3.64 3.52 -6.2 c0 -1.32 -0.32 -2.52 -0.96 -3.64 c-1.28 -2.24 -3.64 -3.6 -6.2 -3.6 z M55.845 26.119999999999997 c0.92 -1.4 1.4 -3.16 1.4 -5.2 c0 -5.56 -3.28 -8.72 -8.92 -8.72 l-9.24 0 l0 12.04 l9.4 0 c2.12 0 3.4 -1.2 3.4 -3.32 c0 -1.12 -0.4 -2.04 -1.2 -2.8 c-0.52 -0.48 -1.4 -0.76 -2.2 -0.76 l-6.68 0 l0 4.2 l1.44 0 l0 -2.8 l5.24 0 c1.16 0 1.96 0.76 1.96 2.16 c0 1.24 -0.64 1.88 -1.96 1.88 l-8 0 l0 -9.16 l7.64 0 c4.96 0 7.72 2.52 7.72 7.28 c0 1.56 -0.32 2.92 -1 4.16 l-0.4 0.64 l-0.44 0.44 l0.52 0.52 l0.76 0.88 c0.48 0.6 0.72 1.84 0.72 3.76 c0 4.68 -2.8 7.2 -7.88 7.2 l-10.32 0 l0 -26.36 l-1.44 0 l0 27.8 l11.76 0 c5.8 0 9.32 -3.2 9.32 -8.64 c0 -2.08 -0.52 -3.8 -1.6 -5.2 z M49.085 37.36 c1.4 0 2.72 -0.52 3.96 -1.6 c1.16 -1.16 1.76 -2.56 1.76 -4.16 c0 -2 -0.64 -3.56 -1.96 -4.72 l-1.04 -0.76 c1.8 -1 2.88 -2.92 2.88 -5.44 c0 -1.08 -0.24 -2.12 -0.72 -3.04 c-0.96 -1.84 -2.68 -2.84 -4.88 -2.84 l-7.24 0 l0 1.44 l7.24 0 c0.68 0 1.32 0.2 2 0.6 c1.28 0.8 2.12 2.24 2.12 3.84 c0 2.76 -1.68 4.72 -4.24 4.72 l-9.84 0 l0 1.44 l9.84 0 c2.68 0 4.4 1.84 4.4 4.76 c0 1.6 -0.68 2.84 -2.08 3.68 c-0.68 0.4 -1.4 0.6 -2.2 0.6 l-8.6 0 l0 -6.32 l8 0 c1.4 0 2.08 0.64 2.08 1.88 c0 1.28 -0.68 1.92 -2.08 1.92 l-5.24 0 l0 -2.64 l-1.44 0 l0 4.08 l6.68 0 c1.56 0 2.6 -0.56 3.16 -1.72 c0.24 -0.44 0.36 -1 0.36 -1.64 c0 -2.08 -1.4 -3.36 -3.52 -3.36 l-9.4 0 l0 9.28 l10 0 z M79.37 40 c-2.44 0 -4.76 -0.64 -6.96 -1.92 c-4.4 -2.52 -7.12 -7.16 -7.12 -12.12 c0 -2.48 0.64 -4.8 1.92 -7 c2.52 -4.32 7.24 -7.04 12.16 -7.04 c2.44 0 4.8 0.64 7 1.88 c4.4 2.56 7.04 7.32 7.04 12.16 c0 2.44 -0.64 4.72 -1.88 6.92 c-2.56 4.4 -7.2 7.12 -12.16 7.12 z M79.37 13.32 c-2.28 0 -4.4 0.56 -6.32 1.68 c-3.88 2.24 -6.28 6.36 -6.28 10.96 c0 2.28 0.56 4.4 1.68 6.32 c2.24 3.88 6.32 6.28 10.92 6.28 c2.28 0 4.4 -0.56 6.36 -1.68 c3.88 -2.24 6.28 -6.32 6.28 -10.92 c0 -2.28 -0.56 -4.4 -1.68 -6.36 c-2.24 -3.88 -6.48 -6.28 -10.96 -6.28 z M79.37 37.28 c-2 0 -3.88 -0.52 -5.68 -1.52 c-3.56 -2.04 -5.76 -5.76 -5.76 -9.8 c0 -2.04 0.52 -3.92 1.52 -5.68 c2.04 -3.52 5.64 -5.6 9.92 -5.6 c2.16 0 4.12 0.48 5.84 1.44 c3.44 1.92 5.44 5.52 5.44 9.84 c0 2.04 -0.48 3.92 -1.44 5.64 c-1.96 3.48 -5.8 5.68 -9.84 5.68 z M79.37 16.08 c-1.8 0 -3.44 0.44 -4.96 1.32 c-3.08 1.76 -4.96 4.92 -4.96 8.56 c0 1.76 0.44 3.4 1.36 4.92 c1.76 3.08 4.88 5 8.56 5 c1.8 0 3.44 -0.44 4.96 -1.36 c3 -1.76 4.92 -5.04 4.92 -8.56 c0 -1.8 -0.44 -3.48 -1.32 -5 c-1.76 -3.04 -5.08 -4.88 -8.56 -4.88 z M79.37 34.68 c-1.56 0 -3.04 -0.4 -4.36 -1.16 c-2.68 -1.56 -4.4 -4.52 -4.4 -7.56 c0 -1.56 0.4 -3.04 1.2 -4.4 c1.56 -2.72 4.32 -4.28 7.56 -4.28 c1.56 0 3 0.4 4.32 1.16 c2.68 1.56 4.24 4.28 4.24 7.52 c0 1.6 -0.36 3.04 -1.08 4.36 c-1.48 2.64 -4.32 4.36 -7.48 4.36 z M79.37 18.72 c-1.28 0 -2.48 0.32 -3.6 0.96 c-2.24 1.32 -3.68 3.68 -3.68 6.28 c0 1.28 0.32 2.48 0.96 3.56 c1.28 2.24 3.6 3.6 6.32 3.6 c1.32 0 2.56 -0.32 3.64 -0.96 c2.2 -1.28 3.52 -3.64 3.52 -6.2 c0 -1.32 -0.32 -2.52 -0.96 -3.64 c-1.28 -2.24 -3.64 -3.6 -6.2 -3.6 z M113.775 40 c-3.88 0 -6.84 -1 -8.8 -3 c-1.92 -1.92 -2.92 -4.76 -2.92 -8.12 l0 -16.84 l6.8 0 l0 16.84 c0 3.04 1.48 4.32 4.72 4.32 c3.16 0 4.88 -1.56 4.88 -4.32 l0 -16.84 l4.12 0 l0 16.84 c0 2.12 -0.56 4.12 -1.64 5.56 c-1.44 1.96 -3.72 2.88 -7.24 2.88 c-2.04 0 -3.68 -0.28 -4.92 -0.88 c-2.52 -1.16 -4.04 -3.76 -4.04 -7.56 l0 -14.28 l1.44 0 l0 14.28 c0 4.52 2.6 7 7.52 7 s7.44 -2.48 7.44 -7 l0 -15.4 l-1.24 0 l0 15.4 c0 3.52 -2.36 5.76 -6.32 5.76 c-4 0 -6.12 -2.04 -6.12 -5.76 l0 -15.4 l-3.96 0 l0 15.4 c0 6.36 3.52 9.68 10.28 9.68 c3.52 0 5.92 -0.84 7.56 -2.56 s2.52 -4.2 2.52 -7.12 l0 -16.84 l1.44 0 l0 16.84 c0 3.36 -1.04 6.16 -2.96 8.12 c-1.92 2 -4.76 3 -8.56 3 z M153.94 38.56 l-4.6 0 l-5.52 -10.28 l-3.72 0.04 l0 10.24 l-4.04 0 l0 -26.56 l-1.44 0 l0 28 l6.96 0 l0 -10.28 l1.4 0 l5.48 10.28 l7.88 0 l-5.52 -10.32 l-1.32 0.52 z M144.42000000000002 13.440000000000001 c5.8 0 9.08 2.6 9.08 7.36 c0 4.32 -2.6 6.96 -7.12 7.44 l-1.08 0.12 l5 9.24 l1.64 0 l-4.36 -8.12 c4.8 -0.84 7.36 -3.76 7.36 -8.68 c0 -1.64 -0.36 -3.12 -1.04 -4.44 c-1.6 -2.84 -4.88 -4.36 -9.48 -4.36 l-7.08 0 l0 25.56 l1.44 0 l0 -24.12 l5.64 0 z M144.10000000000002 27.04 c5.48 0 8.08 -1.88 8.08 -6.04 c0 -3.96 -2.72 -6.2 -7.08 -6.2 l-5.04 0 l0 4.2 l4.6 0 c2.12 0 3.2 0.6 3.2 1.8 c0 1.4 -1.32 2.08 -4 2.08 l-2.32 0 l0 -2.48 l-1.48 0 l0 3.92 l3.8 0 c3.56 0 5.44 -1.24 5.44 -3.52 c0 -0.72 -0.16 -1.28 -0.52 -1.72 c-0.68 -1 -2.04 -1.48 -4.12 -1.48 l-3.12 0 l0 -1.36 l3.56 0 c3.56 0 5.64 1.72 5.64 4.76 c0 3.16 -2.12 4.64 -6.64 4.64 l-4 0 l0 1.4 l4 0 z M184.70500000000004 38.56 l-4.6 0 l-5.52 -10.28 l-3.72 0.04 l0 10.24 l-4.04 0 l0 -26.56 l-1.44 0 l0 28 l6.96 0 l0 -10.28 l1.4 0 l5.48 10.28 l7.88 0 l-5.52 -10.32 l-1.32 0.52 z M175.18500000000003 13.440000000000001 c5.8 0 9.08 2.6 9.08 7.36 c0 4.32 -2.6 6.96 -7.12 7.44 l-1.08 0.12 l5 9.24 l1.64 0 l-4.36 -8.12 c4.8 -0.84 7.36 -3.76 7.36 -8.68 c0 -1.64 -0.36 -3.12 -1.04 -4.44 c-1.6 -2.84 -4.88 -4.36 -9.48 -4.36 l-7.08 0 l0 25.56 l1.44 0 l0 -24.12 l5.64 0 z M174.86500000000004 27.04 c5.48 0 8.08 -1.88 8.08 -6.04 c0 -3.96 -2.72 -6.2 -7.08 -6.2 l-5.04 0 l0 4.2 l4.6 0 c2.12 0 3.2 0.6 3.2 1.8 c0 1.4 -1.32 2.08 -4 2.08 l-2.32 0 l0 -2.48 l-1.48 0 l0 3.92 l3.8 0 c3.56 0 5.44 -1.24 5.44 -3.52 c0 -0.72 -0.16 -1.28 -0.52 -1.72 c-0.68 -1 -2.04 -1.48 -4.12 -1.48 l-3.12 0 l0 -1.36 l3.56 0 c3.56 0 5.64 1.72 5.64 4.76 c0 3.16 -2.12 4.64 -6.64 4.64 l-4 0 l0 1.4 l4 0 z M194.55 12.079999999999998 l1.44 0 l0 26.48 l15.32 0 l0 -4 l-11.28 0 l0 -3.84 l1.44 0 l0 2.4 l11.28 0 l0 6.88 l-18.2 0 l0 -27.92 z M197.27 12.079999999999998 l15.28 0 l0 6.84 l-9.6 0 l0 -1.44 l8.16 0 l0 -3.96 l-12.4 0 l0 11.56 l9.32 0 l0 1.44 l-10.76 0 l0 -14.44 z M197.27 27.8 l12.16 0 l0 -4 l-9.4 0 l0 -9.08 l9.68 0 l0 1.44 l-8.24 0 l0 6.2 l9.4 0 l0 6.88 l-12.16 0 l0 6.64 l11.2 0 l0 1.44 l-12.64 0 l0 -9.52 z M225.07500000000002 37.52 l1.76 0 l1.4 -3.36 l10.44 0.04 l2.56 5.8 l7.36 -0.04 l-12.6 -27.96 l-2.56 0 l-12.52 27.96 l7.8 0 l1.36 -3.2 l7.96 0 l-0.6 -1.36 l-8.24 0 l-1.28 3.16 l-4.76 0 l11.08 -25.2 l0.96 0 l11.12 25.2 l-4.24 0 l-2.56 -5.72 l-12.4 0 z M229.835 30.48 l4.88 -11.64 l8.2 18.64 l1.64 0 l-9.84 -21.92 l-7.2 16.16 l11.6 0 l-4.4 -9.72 l-3.04 7.32 l1.56 0 l1.48 -3.64 l2.2 4.8 l-7.08 0 z M257.32000000000005 11.96 l4.12 0 l0 25.4 l-1.48 0 l0 -23.96 l-1.2 0 l0 25.16 l13.16 0 l0 -3.84 l-6.52 0 l0 -1.44 l7.96 0 l0 6.72 l-16.04 0 l0 -28.04 z M262.76000000000005 11.96 l1.44 0 l0 23.92 l6.44 0 l0 1.48 l-7.88 0 l0 -25.4 z"></path></g>
			</g>
		</svg>
	